<svg xmlns="http://www.w3.org/2000/svg" viewBox="0 0 16 16"><path fill="#fff" d="M0 0h16v16H0z"/><g id="creature-right"><path d="M1 1v10h1v2h2v-1H3v-1h2v2h2v-1H6v-1h1V1z"/><path fill="#fff" d="M2 2h2v1H2zm0 3h4v1H2zm0 4h1v1H2zm3-7h1v2H5zm0 5h1v1H5z"/></g><g id="creature-left"><path d="M15 13V3h-1V1h-2v1h1v1h-2V1H9v1h1v1H9v10z"/><path fill="#fff" d="M14 12h-2v-1h2zm0-3h-4V8h4zm0-4h-1V4h1zm-3 7h-1v-2h1zm0-5h-1V6h1z"/></g><path d="M0 14h1v1h2v-1h1v1h2v-1h1v1h2v-1h1v1h2v-1h1v1h2v-1h1v1 2H0z"/></svg>