<svg xmlns="http://www.w3.org/2000/svg" viewBox="0 0 41 19"><path d="M0 14h3v5h-3zm4 0h2v3h-1v1h1v1h-2zm3 0h2v1h-1v1h1v3h-2v-1h1v-1h-1zm3 0h1v5h-1zm2 0h3v1h-2v2h1v-1h1v3h-3zm4 0v5h1v-2h1v2h1v-5zm4.5 1v1h1v-1zm0 2v1h1v-1zm2.5 -3v5h1v-2h1v2h1v-2h1v2h1v-5zm6 0h2v3h-1v1h1v1h-2zm3 0h3v5h-3zm4 0h1v5h-1zm2 0v5h1v-1h1v1h1v-5zM0 0v5h1v-1h1v1h1v-1h1v1h1v-5zm7 0h1v1h2v-1h1v5h-4zm6 0h1v1h2v-1h1v2h-1v1h1v2h-1v-1h-2v1h-1zm6 0h4v5h-4zm6 0h4v1h-1v1h1v3h-4v-1h1v-1h-1zm6 0h4v1h-1v1h1v1h-1v1h1v1h-4zm6 0h1v1h2v-1h1v5h-4v-1h1v-1h-1z"/><path fill="#757575" d="M0 7h2v1h1v4h-1v-1h-1v1h-1zm4 0h3v2h-1v1h1v2h-1v-1h-1v1h-1zm4 0h2v1h-1v2h1v2h-2zm3 0h1v1h1v-1h1v5h-1v-1h-1v1h-1zm4 0h1v5h-1zm2 0v4h1v1h1v-1h1v-4zm4 0h2v3h-1v1h1v1h-2zm3 0h2v1h-1v2h1v2h-2zm3 0v4h1v1h1v-1h1v-4zm4 0h1v1h1v-1h1v5h-3zm4 0h3v2h-1v1h1v2h-1v-1h-1v1h-1zm4 0h2v3h-1v1h1v1h-2z"/><path fill="#fff" d="M1 8h1v1h-1zm4 0h1v1h-1zm31 0h1v1h-1zM1 17h1v1h-1zm32 1h1v1h-1zm6 -3v1h1v-1z"/></svg>